<?xml version="1.0" encoding="utf-8"?>
<!DOCTYPE svg PUBLIC "-//W3C//DTD SVG 1.1//EN" "http://www.w3.org/Graphics/SVG/1.1/DTD/svg11.dtd">
<svg version="1.1" id="Layer_1" xmlns="http://www.w3.org/2000/svg" xmlns:xlink="http://www.w3.org/1999/xlink" x="0px" y="0px"
	 width="100px" height="100px" viewBox="0 0 110 110" enable-background="new 0 0 100 100"
	 xml:space="preserve">
<g>
	<g>
		
			<linearGradient id="SVGID_1_" gradientUnits="userSpaceOnUse" x1="391.4829" y1="301.354" x2="352.7021" y2="276.1015" gradientTransform="matrix(1 0 0 1 -296 -271.4922)">
			<stop  offset="0" style="stop-color:#80C3E6"/>
			<stop  offset="1" style="stop-color:#3380C2"/>
		</linearGradient>
		<polygon fill="url(#SVGID_1_)" points="82.609,45.242 104.347,10.463 52.058,10.463 44.834,22.053 		"/>
		<polygon opacity="0.15" enable-background="new    " points="44.838,22.053 48.539,16.104 82.614,45.242 		"/>
		
			<linearGradient id="SVGID_2_" gradientUnits="userSpaceOnUse" x1="398.2886" y1="359.6714" x2="369.3001" y2="340.528" gradientTransform="matrix(1 0 0 1 -296 -271.4922)">
			<stop  offset="0" style="stop-color:#F38649"/>
			<stop  offset="0.1849" style="stop-color:#F28147"/>
			<stop  offset="0.4091" style="stop-color:#EF7242"/>
			<stop  offset="0.6537" style="stop-color:#EA5A3A"/>
			<stop  offset="0.911" style="stop-color:#E4382E"/>
			<stop  offset="1" style="stop-color:#E12A29"/>
		</linearGradient>
		<polygon fill="url(#SVGID_2_)" points="94.108,108.294 94.108,56.012 82.828,48.961 59.107,86.428 		"/>
		<polygon opacity="0.15" enable-background="new    " points="59.107,86.426 64.968,90.083 82.828,48.961 		"/>
		
			<linearGradient id="SVGID_3_" gradientUnits="userSpaceOnUse" x1="302.7681" y1="318.7778" x2="358.228" y2="284.1226" gradientTransform="matrix(1 0 0 1 -296 -271.4922)">
			<stop  offset="0" style="stop-color:#42AB4A"/>
			<stop  offset="1" style="stop-color:#ADD155"/>
		</linearGradient>
		<polygon fill="url(#SVGID_3_)" points="9.892,0 9.892,52.285 21.99,59.334 82.602,45.235 		"/>
		
			<linearGradient id="SVGID_4_" gradientUnits="userSpaceOnUse" x1="314.8765" y1="380.7993" x2="359.9555" y2="308.6579" gradientTransform="matrix(1 0 0 1 -296 -271.4922)">
			<stop  offset="0" style="stop-color:#42AB4A"/>
			<stop  offset="1" style="stop-color:#ADD155"/>
		</linearGradient>
		<polygon fill="url(#SVGID_4_)" points="21.736,63.321 0,97.511 52.284,97.511 82.833,48.961 		"/>
	</g>
</g>
</svg>
